<svg xmlns="http://www.w3.org/2000/svg" viewBox="0 0 30 22.5"><defs><style>.cls-1{fill:#5cdb95;}</style></defs><path class="cls-1" d="M435.5,307.84v.94a.47.47,0,0,1-.47.47H406.44a.94.94,0,0,1-.94-.94V287.22a.47.47,0,0,1,.47-.47h.94a.47.47,0,0,1,.47.47v20.16H435A.46.46,0,0,1,435.5,307.84ZM413,303.16v-4.69a.47.47,0,0,1,.47-.47h.94a.48.48,0,0,1,.47.47v4.69a.47.47,0,0,1-.47.46h-.94A.47.47,0,0,1,413,303.16Zm5.62,0V291a.48.48,0,0,1,.47-.47H420a.47.47,0,0,1,.47.47v12.19a.47.47,0,0,1-.47.46h-.94A.47.47,0,0,1,418.62,303.16Zm5.63,0v-8.44a.47.47,0,0,1,.47-.47h.94a.47.47,0,0,1,.46.47v8.44a.47.47,0,0,1-.46.46h-.94A.47.47,0,0,1,424.25,303.16Zm5.63,0V289.09a.47.47,0,0,1,.46-.47h.94a.48.48,0,0,1,.47.47v14.07a.47.47,0,0,1-.47.46h-.94A.47.47,0,0,1,429.88,303.16Z" transform="translate(-405.5 -286.75)"/></svg>