<svg id="Layer_1" data-name="Layer 1" xmlns="http://www.w3.org/2000/svg" viewBox="0 0 26.25 30"><defs><style>.cls-1{fill:#5cdb95;}</style></defs><path class="cls-1" d="M433.62,285.81v24.38a2.88,2.88,0,0,1-2.81,2.81H410.19a2.88,2.88,0,0,1-2.81-2.81V285.81a2.88,2.88,0,0,1,2.81-2.81h20.62A2.88,2.88,0,0,1,433.62,285.81Zm-1.87,0a1,1,0,0,0-.94-.93H410.19a1,1,0,0,0-.94.93v6.57h22.5Zm0,8.44h-22.5v15.94a1,1,0,0,0,.94.93h20.62a1,1,0,0,0,.94-.93Zm-20.63,14.06V297.06a.94.94,0,0,1,.94-.94h16.88a.94.94,0,0,1,.94.94v11.25a.94.94,0,0,1-.94.94H412.06A.94.94,0,0,1,411.12,308.31Zm1.88-6.56h3.75V298H413Zm0,5.63h3.75v-3.76H413Zm5.62-5.63h3.76V298h-3.76Zm0,5.63h3.76v-3.76h-3.76Zm5.63,0H428V298h-3.75v9.38Z" transform="translate(-407.38 -283)"/></svg>