<svg id="Layer_1" data-name="Layer 1" xmlns="http://www.w3.org/2000/svg" viewBox="0 0 24.75 19.25"><defs><style>.cls-1{fill:#fff;}</style></defs><path class="cls-1" d="M432.88,290.44v15.12a2.07,2.07,0,0,1-2.07,2.06H410.19a2.07,2.07,0,0,1-2.07-2.06V290.44a2.07,2.07,0,0,1,2.07-2.06h20.62A2.07,2.07,0,0,1,432.88,290.44Zm-23.38,0v2.06h22v-2.06a.69.69,0,0,0-.69-.69H410.19A.69.69,0,0,0,409.5,290.44Zm22,15.12v-8.94h-22v8.94a.69.69,0,0,0,.69.69h20.62A.69.69,0,0,0,431.5,305.56ZM416.38,303a.52.52,0,0,1-.52.52h-3.09a.52.52,0,0,1-.52-.52v-.34a.52.52,0,0,1,.52-.52h3.09a.53.53,0,0,1,.52.52Zm8.24,0a.51.51,0,0,1-.51.52h-5.84a.52.52,0,0,1-.52-.52v-.34a.52.52,0,0,1,.52-.52h5.84a.52.52,0,0,1,.51.52Z" transform="translate(-408.13 -288.38)"/></svg>