<svg xmlns="http://www.w3.org/2000/svg" viewBox="0 0 22 16.5"><defs><style>.cls-1{fill:#fff;}</style></defs><path class="cls-1" d="M431.32,295.67l-.25.5a2,2,0,0,1-.73.8,3.33,3.33,0,0,1,.47,1.72v5.5a2.06,2.06,0,0,1-2.06,2.06h-.69a2.07,2.07,0,0,1-2.06-2.06v-.69H415v.69a2.06,2.06,0,0,1-2.06,2.06h-.69a2.06,2.06,0,0,1-2.06-2.06v-5.5a3.33,3.33,0,0,1,.47-1.72,2,2,0,0,1-.73-.8l-.25-.5a1.72,1.72,0,0,1,1.54-2.48h2.13l.35-1.07a3.44,3.44,0,0,1,3.27-2.37H424a3.44,3.44,0,0,1,3.27,2.37l.35,1.07h2.13a1.72,1.72,0,0,1,1.54,2.48Zm-19.68.23a4.15,4.15,0,0,1,1-.49l.28-.85h-1.69a.31.31,0,0,0-.29.17.35.35,0,0,0,0,.33l.25.5A.67.67,0,0,0,411.64,295.9Zm17.8,2.79a2.07,2.07,0,0,0-2.07-2.07H413.63a2.07,2.07,0,0,0-2.07,2.07v3.43h17.88v-3.43Zm-15.81,4.81h-2.07v.69a.69.69,0,0,0,.69.69h.69a.69.69,0,0,0,.69-.69Zm3.43-3.78c0,.51-.25,1.37-1.93,1.37h-.44a1.73,1.73,0,1,1,0-3.43A2.48,2.48,0,0,1,417.06,299.72Zm-1,0c0-.42-.8-1-1.34-1s-.89.27-.89.68.35.69.89.69h.44C415.58,300.06,416,300,416,299.72Zm-1.9-4.47h12.74l-.88-2.7a2.06,2.06,0,0,0-2-1.43H417a2.06,2.06,0,0,0-2,1.43Zm14.1,4.12a1.76,1.76,0,0,1-1.92,1.72h-.44c-1.68,0-1.93-.86-1.93-1.37a2.48,2.48,0,0,1,2.37-2.06A1.77,1.77,0,0,1,428.23,299.37Zm-1,0c0-.41-.35-.68-.89-.68s-1.34.61-1.34,1,.45.34.9.34h.44C426.85,300.06,427.2,299.78,427.2,299.37Zm2.24,4.13h-2.07v.69a.69.69,0,0,0,.69.69h.69a.69.69,0,0,0,.69-.69Zm.63-8.77a.31.31,0,0,0-.29-.17h-1.69l.28.85a3.52,3.52,0,0,1,1,.49.67.67,0,0,0,.48-.34l.25-.5A.32.32,0,0,0,430.07,294.73Z" transform="translate(-409.5 -289.75)"/></svg>