<svg xmlns="http://www.w3.org/2000/svg" viewBox="0 0 27.5 16.5"><defs><style>.cls-1{fill:#fff;}</style></defs><path class="cls-1" d="M434.25,295.28a1.68,1.68,0,0,1-1.2,1.63l-4.93,1.6.63,5c0,1.52-3.69,2.75-8.25,2.75s-8.25-1.23-8.25-2.75l.63-5-2.3-.74a1.91,1.91,0,0,0-.28.55,1.35,1.35,0,0,1,.58,1.09,1.38,1.38,0,0,1-.79,1.23l.77,4.8c.07.43-.17.84-.48.84h-1.76c-.32,0-.55-.41-.48-.84l.77-4.8a1.35,1.35,0,0,1,0-2.46,3.45,3.45,0,0,1,.31-.85l-1.27-.42a1.71,1.71,0,0,1,0-3.26L419.33,290a3.74,3.74,0,0,1,2.34,0l11.38,3.68A1.68,1.68,0,0,1,434.25,295.28Zm-1.62-.32-11.39-3.69a2.41,2.41,0,0,0-1.48,0L408.37,295a.34.34,0,0,0,0,.65l1.83.59a3.35,3.35,0,0,1,1.42-.64l8.75-1.64a.69.69,0,0,1,.26,1.35l-8.42,1.58,7.55,2.44a2.34,2.34,0,0,0,1.48,0l11.39-3.68A.34.34,0,0,0,432.63,295Zm-5.84,4-5.12,1.66a3.9,3.9,0,0,1-2.34,0l-5.12-1.66-.56,4.5c.46.49,2.81,1.47,6.85,1.47s6.39-1,6.85-1.47Z" transform="translate(-406.75 -289.78)"/></svg>