<svg xmlns="http://www.w3.org/2000/svg" viewBox="0 0 16.5 22"><defs><style>.cls-1{fill:#fff;}</style></defs><path class="cls-1" d="M428.75,291.81v15.13a2.06,2.06,0,0,1-2.06,2.06H414.31a2.06,2.06,0,0,1-2.06-2.06V291.81a2.06,2.06,0,0,1,2.06-2.06h3.81a2,2,0,0,1,0-.34,2.41,2.41,0,0,1,4.82,0,2,2,0,0,1,0,.34h3.81A2.06,2.06,0,0,1,428.75,291.81Zm-1.37,0a.69.69,0,0,0-.69-.69h-2.07V292a.51.51,0,0,1-.51.52h-7.22a.51.51,0,0,1-.51-.52v-.86h-2.07a.69.69,0,0,0-.69.69v15.13a.68.68,0,0,0,.69.68h12.38a.68.68,0,0,0,.69-.68Zm-2.76,7.91v2.06a.34.34,0,0,1-.34.34h-2.4v2.41a.35.35,0,0,1-.35.35h-2.06a.35.35,0,0,1-.35-.35v-2.41h-2.4a.34.34,0,0,1-.34-.34v-2.06a.34.34,0,0,1,.34-.34h2.4V297a.35.35,0,0,1,.35-.35h2.06a.35.35,0,0,1,.35.35v2.41h2.4A.34.34,0,0,1,424.62,299.72Zm-5.15-10.31a1,1,0,1,0,1-1A1,1,0,0,0,419.47,289.41Z" transform="translate(-412.25 -287)"/></svg>