<svg xmlns="http://www.w3.org/2000/svg" viewBox="0 0 27.5 16.5"><defs><style>.cls-1{fill:#fff;}</style></defs><path class="cls-1" d="M434.25,291.12v13.76a1.37,1.37,0,0,1-1.37,1.37H408.12a1.37,1.37,0,0,1-1.37-1.37V291.12a1.37,1.37,0,0,1,1.37-1.37h24.76A1.37,1.37,0,0,1,434.25,291.12Zm-1.37,4.13a4.13,4.13,0,0,1-4.13-4.13h-16.5a4.13,4.13,0,0,1-4.13,4.13v5.5a4.13,4.13,0,0,1,4.13,4.13h16.5a4.13,4.13,0,0,1,4.13-4.13Zm-24.76-1.37a2.77,2.77,0,0,0,2.76-2.76h-2.76Zm2.76,11a2.77,2.77,0,0,0-2.76-2.76v2.76ZM425.31,298c0,3-2.15,5.5-4.81,5.5s-4.81-2.46-4.81-5.5,2.15-5.5,4.81-5.5S425.31,295,425.31,298Zm-1.37,0c0-2.27-1.55-4.12-3.44-4.12s-3.44,1.85-3.44,4.12,1.54,4.12,3.44,4.12S423.94,300.27,423.94,298Zm-1.72,1.72v.69a.34.34,0,0,1-.34.34h-2.76a.34.34,0,0,1-.34-.34v-.69a.34.34,0,0,1,.34-.34h.69V297l0,0a.35.35,0,0,1-.48-.1l-.38-.57a.35.35,0,0,1,.1-.48l.65-.43a1,1,0,0,1,.57-.18h.59a.35.35,0,0,1,.35.35v3.78h.69A.34.34,0,0,1,422.22,299.72Zm10.66-8.6h-2.76a2.77,2.77,0,0,0,2.76,2.76Zm0,11a2.77,2.77,0,0,0-2.76,2.76h2.76Z" transform="translate(-406.75 -289.75)"/></svg>