<svg  xmlns="http://www.w3.org/2000/svg" viewBox="0 0 22 19.25"><defs><style>.cls-1{fill:#fff;}</style></defs><path class="cls-1" d="M431.5,291.81v8.25c0,1.79-3,3.26-6.88,3.42v.71c0,1.9-3.38,3.43-7.56,3.43s-7.56-1.53-7.56-3.43v-8.25c0-1.92,3.27-3.26,6.88-3.41v-.72c0-1.53,2.17-2.41,2.21-2.43a13.36,13.36,0,0,1,5.35-1C428.83,288.38,431.5,290.22,431.5,291.81Zm-8.13,4.13c0-1.14-2.83-2.06-6.31-2.06s-6.3.92-6.3,2.06,2.82,2.06,6.3,2.06S423.37,297.08,423.37,295.94Zm-.12,2a13.75,13.75,0,0,1-12.37,0v2.15c0,.6,2.16,2.06,6.18,2.06s6.19-1.46,6.19-2.06Zm0,4.12a13.75,13.75,0,0,1-12.37,0v2.16c0,.59,2.16,2.06,6.18,2.06s6.19-1.47,6.19-2.06Zm7-10.22c0-1.14-2.83-2.06-6.31-2.06s-6.3.92-6.3,2.06a1,1,0,0,0,.43.74,11.44,11.44,0,0,1,5,1.29c.3,0,.58,0,.9,0C427.42,293.88,430.25,293,430.25,291.81Zm-.13,2a11.56,11.56,0,0,1-5.67,1.46,1.72,1.72,0,0,1,.17.7v2c3.57-.17,5.5-1.47,5.5-2Zm0,4.13a11.42,11.42,0,0,1-5.5,1.43v2.75c3.57-.15,5.5-1.47,5.5-2Z" transform="translate(-409.5 -288.38)"/></svg>