<svg id="Layer_1" data-name="Layer 1" xmlns="http://www.w3.org/2000/svg" viewBox="0 0 33.75 26.25"><defs><style>.cls-1{fill:#fff;}</style></defs><path class="cls-1" d="M437.38,287.69v20.62a2.81,2.81,0,0,1-2.82,2.81H406.44a2.81,2.81,0,0,1-2.82-2.81V287.69a2.81,2.81,0,0,1,2.82-2.81h28.12A2.81,2.81,0,0,1,437.38,287.69Zm-31.88,0v2.81h30v-2.81a.94.94,0,0,0-.94-.94H406.44A.94.94,0,0,0,405.5,287.69Zm30,20.62V296.12h-30v12.19a.94.94,0,0,0,.94.94h28.12A.94.94,0,0,0,435.5,308.31Zm-20.62-3.51a.71.71,0,0,1-.71.7H410a.71.71,0,0,1-.7-.7v-.47a.71.71,0,0,1,.7-.71h4.22a.71.71,0,0,1,.71.71Zm11.24,0a.7.7,0,0,1-.7.7h-8a.71.71,0,0,1-.7-.7v-.47a.71.71,0,0,1,.7-.71h8a.7.7,0,0,1,.7.71Z" transform="translate(-403.63 -284.88)"/></svg>