<svg id="Layer_1" data-name="Layer 1" xmlns="http://www.w3.org/2000/svg" viewBox="0 0 30 26.25"><defs><style>.cls-1{fill:#fff;}</style></defs><path class="cls-1" d="M435.5,289.56v11.25c0,2.45-4.12,4.45-9.38,4.67v1c0,2.59-4.61,4.68-10.31,4.68S405.5,309,405.5,306.44V295.19c0-2.62,4.46-4.44,9.38-4.65v-1c0-2.08,3-3.29,3-3.31a18.17,18.17,0,0,1,7.3-1.37C431.86,284.88,435.5,287.39,435.5,289.56Zm-11.09,5.63c0-1.56-3.85-2.81-8.6-2.81s-8.59,1.25-8.59,2.81,3.85,2.81,8.59,2.81S424.41,296.74,424.41,295.19Zm-.16,2.69a18.79,18.79,0,0,1-16.87,0v2.93c0,.82,2.95,2.81,8.43,2.81s8.44-2,8.44-2.81Zm0,5.62a18.79,18.79,0,0,1-16.87,0v2.94c0,.81,2.95,2.81,8.43,2.81s8.44-2,8.44-2.81Zm9.54-13.94c0-1.55-3.85-2.81-8.6-2.81s-8.59,1.26-8.59,2.81a1.36,1.36,0,0,0,.59,1,16,16,0,0,1,6.77,1.76c.41,0,.8.06,1.23.06C429.93,292.38,433.79,291.12,433.79,289.56Zm-.17,2.69a15.72,15.72,0,0,1-7.74,2,2.2,2.2,0,0,1,.24,1V298c4.86-.22,7.5-2,7.5-2.76Zm0,5.63a15.65,15.65,0,0,1-7.5,1.95v3.75c4.87-.21,7.5-2,7.5-2.77Z" transform="translate(-405.5 -284.88)"/></svg>