<svg id="Layer_1" data-name="Layer 1" xmlns="http://www.w3.org/2000/svg" viewBox="0 0 37.5 26.25"><defs><style>.cls-1{fill:#fff;}</style></defs><path class="cls-1" d="M439.25,286.75v22.5a1.87,1.87,0,0,1-1.87,1.87H403.62a1.87,1.87,0,0,1-1.87-1.87v-22.5a1.87,1.87,0,0,1,1.87-1.87h33.76A1.87,1.87,0,0,1,439.25,286.75Zm-1.87,0H403.62v22.5h33.76Zm-29.54,9.06a2.42,2.42,0,0,1,2.35-2.37v-.6a.46.46,0,0,1,.47-.46h.93a.46.46,0,0,1,.47.46v.6a3.29,3.29,0,0,1,1.66.56.43.43,0,0,1,.07.65l-.71.75a.44.44,0,0,1-.54.07,1.51,1.51,0,0,0-.69-.18h-1.54a.55.55,0,0,0-.59.51.54.54,0,0,0,.41.49l2.48.67a2.36,2.36,0,0,1-.55,4.66v.6a.47.47,0,0,1-.47.47h-.93a.47.47,0,0,1-.47-.47v-.6a3.2,3.2,0,0,1-1.66-.56.43.43,0,0,1-.07-.65l.71-.75a.45.45,0,0,1,.54-.07,1.39,1.39,0,0,0,.69.18h1.54a.55.55,0,0,0,.59-.51.54.54,0,0,0-.41-.49l-2.48-.67A2.41,2.41,0,0,1,407.84,295.81Zm10.78-.15v-.94a.47.47,0,0,1,.47-.47h14.07a.46.46,0,0,1,.46.47v.94a.45.45,0,0,1-.46.46H419.09A.46.46,0,0,1,418.62,295.66Zm0,5.62v-.94a.46.46,0,0,1,.47-.46h4.69a.46.46,0,0,1,.47.46v.94a.47.47,0,0,1-.47.47h-4.69A.47.47,0,0,1,418.62,301.28Zm15-.94v.94a.46.46,0,0,1-.46.47h-4.69a.47.47,0,0,1-.47-.47v-.94a.46.46,0,0,1,.47-.46h4.69A.45.45,0,0,1,433.62,300.34Z" transform="translate(-401.75 -284.88)"/></svg>