<svg  xmlns="http://www.w3.org/2000/svg" viewBox="0 0 30 26.25"><defs><style>.cls-1{fill:#fff;}</style></defs><path class="cls-1" d="M435.5,296.79a.55.55,0,0,1-.11.3l-.59.72a.52.52,0,0,1-.36.18.55.55,0,0,1-.3-.11l-2.39-1.95v14.24a.94.94,0,0,1-.94.93l-7.5,0a.94.94,0,0,1-.94-.93v-7.51l-3.75,0v7.5a.94.94,0,0,1-.93.94h-7.5a.94.94,0,0,1-.94-.94V295.93l-2.4,1.95a.44.44,0,0,1-.65-.07l-.59-.73a.52.52,0,0,1-.11-.29.53.53,0,0,1,.17-.36l13.64-11.14a1.92,1.92,0,0,1,2.37,0l13.64,11.14A.5.5,0,0,1,435.5,296.79Zm-5.63-2.39-9.37-7.65-9.38,7.65v14.83h5.63v-7.5a.94.94,0,0,1,.94-.94h5.62a1,1,0,0,1,.94.94v7.51l5.62,0h0Z" transform="translate(-405.5 -284.88)"/></svg>