<svg  xmlns="http://www.w3.org/2000/svg" viewBox="0 0 30 30"><defs><style>.cls-1{fill:#fff;}</style></defs><path class="cls-1" d="M435.53,307.14A6.16,6.16,0,0,1,429.1,313H412a6.15,6.15,0,0,1-6.42-5.86c0-1.15-.55-10,10.37-17l-2.56-4.21a1.88,1.88,0,0,1,1.56-2.92h11.25a1.87,1.87,0,0,1,1.55,2.91l-2.56,4.22C436,297.06,435.53,306,435.53,307.14Zm-1.87-.18c0-3.51-1.2-10.16-9.9-15.52h-6.45c-8.73,5.37-10,12-9.9,15.5v.2a4.29,4.29,0,0,0,4.55,4H429.1a4.3,4.3,0,0,0,4.56-4Zm-15.88-17.4h5.5l2.88-4.68H414.91Zm6.5,14.38a2.84,2.84,0,0,1-2.73,2.85v1a.51.51,0,0,1-.51.5h-1a.51.51,0,0,1-.51-.5v-1a4.24,4.24,0,0,1-2-.72.55.55,0,0,1-.2-.39.57.57,0,0,1,.16-.37l.75-.7a.59.59,0,0,1,.35-.14.65.65,0,0,1,.3.09,1.91,1.91,0,0,0,.81.24h1.8a.8.8,0,0,0,.75-.84.82.82,0,0,0-.56-.8l-2.87-.85a2.86,2.86,0,0,1-2-2.74,2.83,2.83,0,0,1,2.72-2.85v-1a.51.51,0,0,1,.51-.5h1a.5.5,0,0,1,.51.5v1a4.32,4.32,0,0,1,2,.72.58.58,0,0,1,.19.39.57.57,0,0,1-.16.37l-.74.71a.57.57,0,0,1-.35.14.65.65,0,0,1-.3-.09,1.77,1.77,0,0,0-.81-.24h-1.79a.8.8,0,0,0-.76.83.83.83,0,0,0,.56.81l2.88.85A2.85,2.85,0,0,1,424.28,303.94Z" transform="translate(-405.53 -283)"/></svg>