<svg id="Layer_1" data-name="Layer 1" xmlns="http://www.w3.org/2000/svg" viewBox="0 0 13.56 13.56"><defs><style>.cls-1{fill:#15db95;}</style></defs><path class="cls-1" d="M420.5,304.78a6.78,6.78,0,1,1,6.78-6.78A6.77,6.77,0,0,1,420.5,304.78Zm0-12.25A5.47,5.47,0,1,0,426,298,5.47,5.47,0,0,0,420.5,292.53Zm3.5,5.91a.33.33,0,0,1-.33.33h-2.4v2.4a.33.33,0,0,1-.33.33h-.88a.33.33,0,0,1-.33-.33v-2.4h-2.4a.33.33,0,0,1-.33-.33v-.88a.33.33,0,0,1,.33-.33h2.4v-2.4a.33.33,0,0,1,.33-.33h.88a.33.33,0,0,1,.33.33v2.4h2.4a.33.33,0,0,1,.33.33Z" transform="translate(-413.72 -291.22)"/></svg>