<svg id="Layer_1" data-name="Layer 1" xmlns="http://www.w3.org/2000/svg" viewBox="0 0 19.46 19.46"><defs><style>.cls-1{fill:#15db95;}</style></defs><path class="cls-1" d="M430.23,294v11.65a2.08,2.08,0,0,1-2.08,2.08h-15.3a2.08,2.08,0,0,1-2.08-2.08v-15.3a2.08,2.08,0,0,1,2.08-2.08H424.5a2.39,2.39,0,0,1,1.48.61l3.64,3.64A2.39,2.39,0,0,1,430.23,294Zm-5.71-2.65-.15-.15a.51.51,0,0,0-.37-.15h-9.93a.52.52,0,0,0-.52.52v4.52a.52.52,0,0,0,.52.52h10.08a.52.52,0,0,0,.52-.52v-4.37A.64.64,0,0,0,424.52,291.35Zm-1.24,10.82A2.78,2.78,0,1,0,420.5,305,2.77,2.77,0,0,0,423.28,302.17Z" transform="translate(-410.77 -288.27)"/></svg>