<svg id="Layer_1" data-name="Layer 1" xmlns="http://www.w3.org/2000/svg" viewBox="0 0 20 16.24"><defs><style>.cls-1{fill:#02254d;}</style></defs><path class="cls-1" d="M428.46,294.46a11.67,11.67,0,0,1-18,9.82,8.48,8.48,0,0,0,6.08-1.7,4.11,4.11,0,0,1-3.83-2.84,4.81,4.81,0,0,0,.77.06,4.26,4.26,0,0,0,1.08-.14,4.1,4.1,0,0,1-3.29-4v-.05a4.27,4.27,0,0,0,1.86.52,4.08,4.08,0,0,1-1.83-3.41,4,4,0,0,1,.56-2.07,11.67,11.67,0,0,0,8.45,4.29,4.29,4.29,0,0,1-.1-.94,4.1,4.1,0,0,1,7.09-2.81,7.88,7.88,0,0,0,2.6-1,4.08,4.08,0,0,1-1.8,2.26,8.57,8.57,0,0,0,2.36-.63,9,9,0,0,1-2.06,2.12A4.61,4.61,0,0,1,428.46,294.46Z" transform="translate(-410.5 -289.88)"/></svg>